<svg width="494" height="518" viewBox="0 0 494 518" fill="none" xmlns="http://www.w3.org/2000/svg">
<path d="M424.81 432.694C517.09 340.507 517.09 191.043 424.81 98.8557C332.531 6.66864 182.916 6.66865 90.6364 98.8557C-1.64314 191.043 -1.64313 340.507 90.6364 432.694C182.916 524.881 332.531 524.881 424.81 432.694Z" fill="#FFE3C8"/>
<path d="M28.5336 323.511C54.3094 425.993 147.119 501.852 257.704 501.852C298.743 501.852 337.325 491.404 370.937 473.019C370.855 433.74 370.609 394.051 361.571 355.835C352.397 317.074 333.202 279.322 301.391 255.29C254.536 219.829 187.448 220.43 133.63 244.079C93.0823 261.891 58.842 290.86 28.5609 323.511H28.5336Z" fill="#B54E00"/>
<path d="M156.703 236.851C156.703 236.851 165.741 269.256 171.174 282.077C177.236 296.397 183.762 310.909 194.575 322.093C205.387 333.277 221.415 340.614 236.57 337.123C244.87 335.186 252.133 330.276 259.151 325.448C279.138 311.727 308.982 303.053 327.331 281.095C328.123 283.086 331.044 287.914 333.283 283.959C343.359 266.31 281.65 230.768 264.721 224.821C250.468 219.829 236.078 214.81 221.088 213.065C204.159 211.101 148.047 217.374 140.074 238.46C137.753 244.57 156.73 236.851 156.73 236.851H156.703Z" fill="#7C3605"/>
<path d="M250.932 230.222C242.14 229.513 232.72 228.395 224.009 230.44C223.845 230.713 223.6 230.959 223.217 231.068C207.299 235.378 203.613 258.127 211.012 270.975C218.985 284.804 238.809 291.897 253.99 288.569C272.448 284.532 281.513 262.873 275.752 245.661C272.011 234.505 261.608 231.095 250.905 230.222H250.932Z" fill="white"/>
<path d="M220.897 195.089C216.473 214.592 208.8 243.07 211.231 252.972C213.934 264.074 227.34 270.102 238.617 271.984C288.968 280.276 275.752 245.661 285.636 199.617" fill="#F49C8E"/>
<g style="mix-blend-mode:multiply" opacity="0.23">
<path d="M246.399 231.832C258.195 234.505 269.963 233.659 281.295 230.604C282.196 221.248 283.234 210.773 285.636 199.617L220.897 195.089C219.286 202.154 217.265 210.364 215.463 218.466C224.173 225.367 236.952 229.677 246.399 231.804V231.832Z" fill="#F49074"/>
</g>
<path d="M52.3435 311.482C31.1549 273.239 -1.52907 299.343 6.06168 310.309C11.1677 317.701 17.4751 302.671 26.595 303.871C14.8812 308.154 -5.97977 328.667 1.63829 334.013C6.38934 337.341 17.2567 318.492 27.2776 320.511C18.6219 325.748 2.56666 340.642 5.40637 347.297C8.24607 353.98 22.5265 341.405 30.3903 339.878C21.8439 343.478 7.69998 360.963 12.0688 364.973C16.4375 368.983 28.9432 354.008 35.4963 354.662C39.046 355.017 37.9811 362.627 42.541 364.373C50.241 367.319 68.3441 340.423 52.3435 311.509V311.482Z" fill="#F49C8E"/>
<path d="M351.742 455.644C395.457 453.68 390.296 495.141 376.944 494.432C367.961 493.941 377.49 480.739 371.701 473.592C374.186 485.813 367.606 514.29 359.059 510.608C353.735 508.316 364.138 489.195 357.175 481.721C357.23 491.841 352.943 513.281 345.762 514.372C338.581 515.463 341.83 496.724 339.018 489.222C340.41 498.387 332.901 519.582 327.194 517.945C321.488 516.309 327.713 497.842 323.727 492.605C321.57 489.768 315.645 494.65 311.767 491.677C305.214 486.658 318.703 457.171 351.742 455.671V455.644Z" fill="#F49C8E"/>
<path d="M128.196 315.901C106.161 335.432 77.2182 373.402 62.5555 398.906" stroke="#7C3605" stroke-miterlimit="10"/>
<path d="M296.558 366.992C300.053 411.181 297.924 455.807 290.224 499.478" stroke="#7C3605" stroke-miterlimit="10"/>
<path d="M339.536 171.685C338.116 152.181 340.11 132.432 345.38 113.583C351.332 92.307 373.831 91.9797 369.599 116.284C365.967 137.206 354.991 157.146 339.536 171.657V171.685Z" fill="#612D2F"/>
<path d="M360.534 89.1156C356.083 113.856 354.39 138.87 345.707 162.438C337.488 184.778 305.542 231.45 261.908 225.367C249.184 223.594 206.316 211.319 202.384 155.264C200.882 133.742 203.558 112.22 207.899 91.0796C211.504 73.4856 232.146 47.6811 268.98 55.3461C305.815 63.011 360.534 89.1156 360.534 89.1156Z" fill="#F49C8E"/>
<path d="M375.906 44.7896C378.009 40.5889 378.145 35.4607 376.261 31.1509C373.285 24.3588 366.158 20.5399 359.523 17.2393C344.205 9.57436 326.539 1.77299 310.593 8.04682C298.47 -0.272819 282.278 -2.31863 268.434 2.70043C254.591 7.71949 243.532 19.7216 239.6 33.8786C233.02 38.5976 232.146 49.4268 237.88 55.1278L231.709 60.6924C227.996 77.4408 234.412 89.1429 271.766 96.3987C283.698 98.7173 295.603 93.48 297.023 90.1794C297.432 91.0523 297.951 91.8706 298.661 92.4707C325.72 115.357 360.67 107.119 369.981 103.218C377.763 99.972 383.442 90.725 381.558 83.06C383.606 85.0512 386.856 86.0605 389.695 85.324C394.173 84.1784 397.341 80.0595 398.842 75.6678C403.73 61.4016 390.924 44.2168 375.824 44.7896H375.906Z" fill="#612D2F"/>
<path d="M256.939 170.73C264.038 175.64 272.503 178.559 281.104 179.104C280.148 183.059 278.728 186.96 276.244 190.179C273.759 193.398 270.127 196.753 266.086 196.316C247.846 194.352 256.939 170.73 256.939 170.73Z" fill="white"/>
<path d="M345.707 162.438C345.926 161.837 346.117 161.237 346.335 160.637C341.721 154.636 334.485 150.735 326.321 150.735C312.368 150.735 301.064 162.028 301.064 175.967C301.064 188.078 309.61 198.198 320.996 200.626C333.365 187.669 341.994 172.53 345.734 162.41L345.707 162.438Z" fill="#FD8177"/>
<path d="M238.426 177.058C252.375 177.058 263.683 165.762 263.683 151.827C263.683 137.891 252.375 126.595 238.426 126.595C224.477 126.595 213.169 137.891 213.169 151.827C213.169 165.762 224.477 177.058 238.426 177.058Z" fill="#FD8177"/>
<path d="M209.62 29.8688C202.711 34.6424 199.817 44.435 203.012 52.2091C196.486 53.7366 191.462 59.3831 189.223 65.6842C186.984 71.9853 187.148 78.9138 188.049 85.5422C190.725 105.482 196.65 141.543 213.77 139.088C219.995 138.188 215.354 125.449 217.32 118.93C219.313 112.411 219.859 106.491 223.627 100.845C231.163 89.5247 240.501 79.0502 244.652 66.0933C250.877 46.7536 232.774 13.7751 209.62 29.8415V29.8688Z" fill="#612D2F"/>
<path d="M324.464 117.211C312.04 117.211 301.228 124.276 295.821 134.587C293.773 133.251 290.852 133.114 288.23 133.551C288.176 115.793 273.704 101.363 255.929 101.363C243.942 101.363 233.484 107.937 227.914 117.648C227.859 117.621 227.832 117.566 227.777 117.511C222.835 114.211 217.647 111.647 212.323 109.028C207.681 106.71 203.012 103.873 198.015 102.454C197.059 102.181 196.131 103.545 196.977 104.227C201.292 107.692 206.616 110.037 211.449 112.738C216.419 115.52 221.251 118.193 226.494 120.43C224.665 124.467 223.627 128.941 223.627 133.66C223.627 151.445 238.126 165.929 255.929 165.929C272.776 165.929 286.619 152.972 288.094 136.524C288.831 136.66 289.596 136.797 290.306 136.933C291.015 137.069 291.807 137.233 292.463 137.506C293.282 137.833 293.446 138.161 294.046 138.652C292.845 142.034 292.135 145.662 292.135 149.481C292.135 167.266 306.634 181.75 324.437 181.75C342.239 181.75 356.738 167.266 356.738 149.481C356.738 131.696 342.239 117.211 324.437 117.211H324.464ZM255.929 161.456C240.583 161.456 228.105 148.99 228.105 133.66C228.105 118.33 240.583 105.864 255.929 105.864C271.274 105.864 283.752 118.33 283.752 133.66C283.752 148.99 271.274 161.456 255.929 161.456ZM324.464 177.276C309.119 177.276 296.64 164.811 296.64 149.481C296.64 134.151 309.119 121.685 324.464 121.685C338.335 121.685 349.83 131.887 351.933 145.144C352.069 146.426 352.452 147.789 352.288 149.999C352.015 165.083 339.645 177.304 324.491 177.304L324.464 177.276Z" fill="#7C3605"/>
<path d="M205.169 153.518C203.804 158.755 201.455 159.383 196.104 158.564C190.752 157.773 186.301 153.654 184.035 148.744C181.769 143.834 181.386 138.27 181.769 132.869C182.151 127.522 183.38 121.958 186.984 118.03C190.779 113.884 195.994 109.792 202.384 113.829C208.773 117.866 205.169 153.518 205.169 153.518Z" fill="#F49C8E"/>
<path d="M266.987 90.5067C260.926 89.6338 254.837 93.7254 250.823 97.7898C250.386 98.2262 250.932 98.8809 251.478 98.6354C254.782 96.9715 258.659 95.4166 262.318 94.6801C268.352 93.4527 270.4 97.4079 272.284 102.345C273.103 104.473 277.035 104.445 276.68 101.745C276.025 96.535 272.53 91.325 266.96 90.534L266.987 90.5067Z" fill="#61302F"/>
<path d="M344.642 108.319C339.345 106.573 332.3 110.256 328.014 113.065C327.003 113.747 328.068 115.357 329.133 114.866C332.519 113.256 336.533 111.838 340.355 112.001C346.608 112.302 344.56 118.657 345.025 122.831C345.298 125.258 348.438 124.986 349.339 123.213C351.823 118.193 350.704 110.31 344.642 108.319Z" fill="#61302F"/>
<path d="M259.151 121.849C258.932 119.885 259.041 117.702 257.376 116.448C256.912 116.093 256.229 116.311 255.819 116.639C254.4 117.812 254.563 120.239 254.29 121.958C253.963 124.085 253.854 126.158 254.427 128.232C254.864 129.814 257.349 130.332 258.14 128.723C259.205 126.513 259.424 124.276 259.151 121.849Z" fill="#61302F"/>
<path d="M334.103 131.423C333.638 129.759 331.263 130.168 331.181 131.832C331.072 134.205 330.307 136.578 329.625 138.87C328.751 141.707 332.874 142.661 333.939 140.07C335.086 137.233 334.922 134.369 334.103 131.45V131.423Z" fill="#61302F"/>
<path d="M285.2 154.118C285.036 153.3 283.725 153.327 283.561 154.118C282.36 159.573 280.722 164.783 279.138 170.13C278.619 171.821 280.94 172.612 281.868 171.276C285.336 166.338 286.346 159.983 285.227 154.118H285.2Z" fill="#FD8177"/>
</svg>
