<svg width="480" height="590" viewBox="0 0 480 590" fill="none" xmlns="http://www.w3.org/2000/svg">
<g clip-path="url(#clip0_2_467)">
<path d="M221.828 585.666C99.33 585.666 0.0255737 486.315 0.0255737 363.759C0.0255737 241.203 99.33 141.852 221.828 141.852C344.326 141.852 443.631 241.203 443.631 363.759C443.631 486.315 344.326 585.666 221.828 585.666Z" fill="#FFE3C8"/>
<path d="M343.879 200.547C377.146 217.651 362.076 265.242 387.245 277.14C394.524 280.576 402.469 282.525 409.569 286.346C416.668 290.167 423.127 296.526 424.024 304.526C425.126 314.245 417.898 323.014 416.976 332.758C415.515 348.323 429.97 360.477 443.657 368.042C457.343 375.606 473.182 383.119 478.385 397.864C483.46 412.274 475.745 428.66 463.93 438.327C452.114 447.994 436.993 452.379 422.307 456.558C391.243 465.405 359.487 474.328 327.219 472.739C298.59 471.328 270.987 461.661 242.512 458.251C210.448 454.405 177.642 458.533 145.886 452.533C134.43 450.379 122.896 446.712 114.079 439.07C105.263 431.455 99.7779 419.121 102.853 407.89C108.415 387.607 137.223 380.35 141.837 359.862C144.246 349.143 139.12 338.374 135.404 328.04C131.687 317.706 129.765 304.911 137.172 296.782C142.759 290.628 152.371 288.91 157.138 282.089C162.7 274.089 159.214 263.319 157.881 253.652C155.318 235.087 162.392 215.445 176.207 202.778C190.021 190.111 210.192 184.752 228.466 188.906" fill="#B54E00"/>
<path d="M400.752 381.632C403.238 382.991 412.234 386.453 416.514 384.376C420.718 382.324 415.925 372.196 413.208 368.349C401.751 352.067 389.859 336.092 377.531 320.476C373.686 315.604 360 302.244 356.591 309.373C354.695 313.321 358.283 331.809 359.667 336.733C363.87 351.528 369.97 355.58 380.76 366.503C386.655 372.452 393.37 377.606 400.726 381.632H400.752Z" fill="#C78350"/>
<path d="M368.894 48.8484C370.739 41.2584 344.468 -2.84611 337.24 1.87204C336.267 2.51309 344.366 23.8986 344.366 23.8986C344.366 23.8986 326.168 -2.64098 322.042 0.205301C317.915 3.02594 331.986 27.3347 331.986 27.3347C331.986 27.3347 303.768 3.00029 299.462 4.64139C293.541 6.8979 321.606 36.1556 321.606 36.1556C321.606 36.1556 300.513 21.3601 297.36 25.4628C294.208 29.5656 322.426 53.6435 322.426 53.6435C322.426 53.6435 294.874 50.746 309.663 58.8489C324.477 66.9518 344.289 72.6956 344.289 72.6956C442.067 262.242 366.331 325.219 303.229 356.785C295.182 360.811 282.674 357.734 279.932 354.067C268.834 338.784 264.656 324.014 261.811 304.911C252.943 314.373 229.287 326.655 204.682 322.63C217.984 332.348 236.284 379.35 194.378 407.838C163.135 429.096 135.173 521.125 125.254 564.281C141.991 572.23 159.855 578.128 178.565 581.692C196.429 547.28 203.631 505.894 213.191 479.201C215.805 471.969 217.907 464.661 219.598 457.276C259.658 459.405 297.924 461.277 311.175 445.917C311.918 445.045 312.482 443.891 312.943 442.481L337.087 442.712C503.605 341.656 464.571 121.544 368.894 48.8484Z" fill="#F49C8E"/>
<g style="mix-blend-mode:multiply" opacity="0.23">
<path d="M217.881 340.759C234.797 343.502 252.841 339.887 267.885 331.297C265.041 323.219 263.246 314.655 261.811 304.962C252.943 314.424 229.287 326.707 204.682 322.681C210.397 326.861 214.78 333.117 217.881 340.759Z" fill="#F49074"/>
</g>
<path d="M290.696 299.218C264.451 334.809 233.746 338.656 212.371 331.809C178.616 320.988 160.188 270.832 193.635 221.394C203.913 206.188 220.29 194.983 238.539 191.162C280.214 182.393 350.004 218.881 290.722 299.244L290.696 299.218Z" fill="#FDA894"/>
<path d="M264.323 147.519C286.724 151.981 306.92 156.802 326.86 173.802C372.097 212.368 360.487 325.527 269.68 320.809C295.797 299.295 306.126 263.601 290.517 274.858C279.701 282.653 277.548 293.167 274.729 290.756C266.527 283.705 300.615 257.062 280.572 231.754C273.37 222.651 260.068 220.497 248.484 218.42C236.899 216.343 225.006 215.394 213.883 211.625C202.759 207.83 194.02 199.675 187.92 189.854C160.982 146.494 211.422 95.081 264.349 147.494L264.323 147.519Z" fill="#B54E00"/>
<path d="M277.676 289.782C292.824 265.678 303.383 269.832 308.176 274.14C312.994 278.422 314.122 285.679 312.277 291.782C310.252 298.474 304.844 304.141 298.129 306.577C291.414 309.039 283.545 308.244 277.497 304.5" fill="#FDA894"/>
<path d="M221.803 282.653C219.496 290.602 212.294 293.961 207.68 294.551C201.914 295.269 197.403 288.833 196.455 281.499C196.07 278.576 221.982 281.987 221.803 282.653Z" fill="white"/>
<path d="M206.22 269.627C205.63 266.396 206.194 263.858 207.296 260.78C208.372 257.857 209.449 255.319 211.884 253.267C213.217 252.165 215.728 252.883 215.549 254.832C215.293 257.601 214.37 259.909 213.678 262.575C213.345 263.781 213.088 265.011 212.883 266.242C212.627 267.73 211.935 268.986 211.294 270.371C210.295 272.55 206.604 271.807 206.194 269.601L206.22 269.627Z" fill="#FD8177"/>
<path d="M230.722 295.32C228.184 290.295 226.98 284.32 228.876 278.858C230.773 273.422 234.233 268.755 239.513 265.96C244.511 263.293 250.918 262.601 256.378 264.165C261.606 265.652 267.168 269.704 269.628 274.55C272.166 279.576 273.37 285.551 271.474 291.012C269.577 296.449 266.117 301.115 260.837 303.91C255.839 306.577 249.432 307.244 243.973 305.705C238.744 304.218 233.182 300.167 230.722 295.32Z" fill="#FD8177"/>
<path d="M178.436 254.857C182.768 257.165 186.843 261.14 188.535 265.524C190.559 270.781 191.38 288.807 178.693 294.577C174.028 279.525 175.95 264.678 178.411 254.857H178.436Z" fill="#FD8177"/>
<path d="M192.072 224.266C191.098 225.164 192.405 226.958 193.533 226.164C198.402 222.676 204.528 225.446 205.374 231.266C205.681 233.369 209.346 232.882 209.116 230.754C208.116 222.189 198.556 218.266 192.072 224.266Z" fill="#A8541B"/>
<path d="M261.068 243.882C258.069 232.625 244.203 227.497 236.386 237.446C235.745 238.241 236.719 239.267 237.514 238.574C241.153 235.497 246.638 234.164 251.098 236.395C254.737 238.215 256.249 241.78 258.325 245.036C259.222 246.447 261.529 245.575 261.068 243.882Z" fill="#A8541B"/>
<path d="M192.764 237.267C192.072 238.19 191.431 239.062 191.021 240.164C190.611 241.267 190.278 242.37 189.996 243.498C189.406 245.78 193.123 246.703 193.481 244.447C193.661 243.293 193.891 242.164 194.173 241.036C194.455 239.959 194.481 238.857 194.635 237.754C194.788 236.651 193.276 236.574 192.764 237.241V237.267Z" fill="#A8541B"/>
<path d="M244.024 248.78C243.358 249.498 242.537 250.216 241.973 251.036C241.384 251.883 241.051 253.011 240.641 253.96C240.205 255.011 240.333 256.216 241.384 256.832C242.332 257.37 243.742 257.088 244.255 256.088C244.742 255.114 245.51 254.011 245.792 252.96C246.074 251.934 246.074 250.754 246.202 249.703C246.356 248.575 244.69 248.011 243.973 248.78H244.024Z" fill="#A8541B"/>
<path d="M220.214 585.667C288.108 585.667 348.851 555.152 389.526 507.073C377.505 477.149 365.126 445.661 365.126 445.661C365.126 445.661 393.652 403.402 416.489 384.376C389.68 365.298 354.156 327.066 356.566 309.373C345.314 330.168 287.185 357.862 287.185 357.862C275.728 403.505 218.343 404.146 217.112 380.068C217.112 380.068 181.102 393.761 158.906 436.301C144.092 464.661 135.173 488.073 126.536 533.28C142.042 546.024 170.876 556.87 193.302 553.614C199.274 542.613 203.426 530.177 206.091 518.202C207.604 540.665 204.528 562.794 204.81 585.179C209.91 585.538 215.036 585.718 220.239 585.718L220.214 585.667Z" fill="white"/>
<path d="M204.784 585.128C209.885 585.487 215.011 585.666 220.214 585.666C288.108 585.666 348.851 555.152 389.526 507.073" stroke="#FEE3CB" stroke-miterlimit="10" stroke-linecap="round"/>
<path d="M205.861 471.123C206.066 484.867 206.066 494.637 206.066 518.151" stroke="#FEE3CB" stroke-miterlimit="10" stroke-linecap="round"/>
<path d="M348.056 418.377C354.746 429.916 358.437 434.121 365.152 445.66" stroke="#FEE3CB" stroke-miterlimit="10" stroke-linecap="round"/>
<path d="M236.745 406.736C247.023 407.71 258.325 405.377 267.45 400.633C284.955 391.556 293.721 372.862 295.156 353.862C290.286 356.349 287.211 357.836 287.211 357.836C275.754 403.479 218.368 404.12 217.138 380.042C217.138 380.042 213.755 381.324 208.449 384.324C209.116 396.992 225.621 405.684 236.745 406.736Z" fill="#B54E00"/>
<path d="M349.979 317.809C350.517 326.399 355.566 334.63 360.384 341.451C365.869 349.22 372.405 356.298 379.146 362.99C389.27 373.016 400.495 381.555 413.157 387.299C414.284 386.273 415.412 385.273 416.514 384.35C389.705 365.272 354.182 327.04 356.591 309.347C355.105 312.065 352.824 314.911 349.979 317.783V317.809Z" fill="#B54E00"/>
<path d="M158.291 538.049C151.346 535.511 144.707 532.382 137.992 529.331C134.583 527.792 131.123 526.356 128.355 524.023C127.74 526.997 127.125 530.049 126.51 533.228C142.016 545.973 170.85 556.819 193.276 553.563C194.455 551.409 195.532 549.178 196.557 546.921C183.511 545.947 170.466 542.46 158.291 538.024V538.049Z" fill="#B54E00"/>
<path d="M111.978 527.356C73.0457 514.304 66.997 553.127 79.2225 555.922C87.4498 557.794 82.2725 543.383 89.3464 538.434C83.9641 548.819 82.5544 576.282 91.2174 575.153C96.6253 574.435 92.1657 554.486 100.393 549.511C97.7274 558.64 96.0871 579.128 102.264 581.974C108.441 584.82 110.363 567.025 114.823 560.973C111.183 568.897 112.49 589.974 118.078 589.974C123.665 589.974 122.794 571.666 127.74 567.948C130.431 565.922 134.507 571.871 138.787 570.204C145.989 567.358 141.427 537.229 111.978 527.356Z" fill="#F49C8E"/>
<path d="M325.041 54.3101C328.373 54.2588 331.628 53.3357 334.883 52.6177C338.138 51.8997 341.572 51.4382 344.776 52.31C348.005 53.1818 350.978 55.6691 351.516 58.9513" stroke="#E88B7D" stroke-miterlimit="10"/>
</g>
<defs>
<clipPath id="clip0_2_467">
<rect width="480" height="590" fill="white" transform="matrix(-1 0 0 1 480 0)"/>
</clipPath>
</defs>
</svg>
