<?xml version="1.0" encoding="UTF-8"?>
<svg id="Layer_1" data-name="Layer 1" xmlns="http://www.w3.org/2000/svg" viewBox="0 0 379 379">
  <defs>
    <style>
      .cls-1 {
        letter-spacing: -.04em;
      }

      .cls-2, .cls-3 {
        stroke-width: 0px;
      }

      .cls-2, .cls-4 {
        fill: #231f20;
      }

      .cls-5 {
        letter-spacing: -.07em;
      }

      .cls-3 {
        fill: #ebe5da;
      }

      .cls-4 {
        font-family: LEMONMILK-Medium, 'LEMON MILK';
        font-size: 48px;
        font-weight: 500;
      }
    </style>
  </defs>
  <rect class="cls-3" width="379" height="379" rx="92" ry="92"/>
  <path class="cls-2" d="M101.51,164.04c-.88-.28-1.77-.52-2.68-.73-14.7-3.32-33.53,7.7-29.76,24.49,1.98,8.8,8.54,15.74,14.83,22.21,20.65,21.19,41.29,42.39,61.94,63.58,3.17,3.25,6.49,6.6,10.75,8.15,7.7,2.8,16.35-1.07,22.48-6.51,51.08-45.31,84.84-107.63,135.46-153.82,10.38-9.47,21.88-19.61,11.34-40.58-22.14-17.09-39.15,0-51.68,15.12-33.27,40.15-65.89,80.86-98.75,121.35-2.95,3.63-6.12,7.43-10.52,9-16.6,5.92-40.15-21.4-46.53-31.38-6.82-10.68-4.93-27.1-16.88-30.88Z"/>
  <text class="cls-4" transform="translate(68.58 338.83)"><tspan class="cls-1" x="0" y="0">T</tspan><tspan x="26.3" y="0">odori</tspan><tspan class="cls-5" x="193.73" y="0">k</tspan><tspan x="222.12" y="0">o</tspan></text>
</svg>